<?xml version="1.0" encoding="UTF-8" standalone="no"?>
<!DOCTYPE svg PUBLIC "-//W3C//DTD SVG 1.1//EN" "http://www.w3.org/Graphics/SVG/1.1/DTD/svg11.dtd">
<svg width="100%" height="100%" viewBox="0 0 1080 1080" version="1.1" xmlns="http://www.w3.org/2000/svg" xmlns:xlink="http://www.w3.org/1999/xlink" xml:space="preserve" xmlns:serif="http://www.serif.com/" style="fill-rule:evenodd;clip-rule:evenodd;stroke-linejoin:round;stroke-miterlimit:2;">
    <g transform="matrix(56.7942,0,0,56.7942,-16019.4,-35088.9)">
        <path d="M283.634,633.68C283.634,634.196 284.042,634.604 284.558,634.604C285.074,634.604 285.482,634.196 285.482,633.68L285.482,631.16L288.89,631.16L288.89,633.68C288.89,634.196 289.298,634.604 289.814,634.604C290.33,634.604 290.738,634.196 290.738,633.68L290.738,626.984C290.738,626.468 290.33,626.06 289.814,626.06C289.298,626.06 288.89,626.468 288.89,626.984L288.89,629.456L285.482,629.456L285.482,626.984C285.482,626.468 285.074,626.06 284.558,626.06C284.042,626.06 283.634,626.468 283.634,626.984L283.634,633.68Z" style="fill-rule:nonzero;"/>
        <path d="M295.442,634.664L295.562,634.664C296.066,634.664 296.414,634.388 296.606,633.932L299.354,627.356C299.402,627.248 299.45,627.092 299.45,626.948C299.45,626.444 299.042,626.06 298.538,626.06C298.094,626.06 297.77,626.348 297.65,626.648L295.526,632.144L293.426,626.708C293.282,626.336 292.97,626.06 292.49,626.06C291.974,626.06 291.566,626.456 291.566,626.972C291.566,627.128 291.614,627.272 291.674,627.416L294.398,633.932C294.59,634.388 294.938,634.664 295.442,634.664Z" style="fill-rule:nonzero;"/>
    </g>
    <g transform="matrix(0.933898,0,0,0.869732,4.95813,27.571)">
        <path d="M589.178,36.733L1059.35,374.718C1071.1,383.167 1076.32,398.877 1072.21,413.409C1068.1,427.941 1055.62,437.875 1041.47,437.875L101.14,437.875C86.996,437.875 74.516,427.941 70.404,413.409C66.292,398.877 71.516,383.167 83.269,374.718L553.437,36.733C564.251,28.959 578.364,28.959 589.178,36.733Z" style="fill:rgb(151,0,0);"/>
    </g>
</svg>
